%TF.GenerationSoftware,KiCad,Pcbnew,10.0.3*%
%TF.CreationDate,2026-06-23T14:11:46+05:30*%
%TF.ProjectId,pcb,7063622e-6b69-4636-9164-5f7063625858,0*%
%TF.SameCoordinates,Original*%
%TF.FileFunction,Copper,L1,Top*%
%TF.FilePolarity,Positive*%
%FSLAX46Y46*%
G04 Gerber Fmt 4.6, Leading zero omitted, Abs format (unit mm)*
G04 Created by KiCad (PCBNEW 10.0.3) date 2026-06-23 14:11:46*
%MOMM*%
%LPD*%
G01*
G04 APERTURE LIST*
G04 Aperture macros list*
%AMRoundRect*
0 Rectangle with rounded corners*
0 $1 Rounding radius*
0 $2 $3 $4 $5 $6 $7 $8 $9 X,Y pos of 4 corners*
0 Add a 4 corners polygon primitive as box body*
4,1,4,$2,$3,$4,$5,$6,$7,$8,$9,$2,$3,0*
0 Add four circle primitives for the rounded corners*
1,1,$1+$1,$2,$3*
1,1,$1+$1,$4,$5*
1,1,$1+$1,$6,$7*
1,1,$1+$1,$8,$9*
0 Add four rect primitives between the rounded corners*
20,1,$1+$1,$2,$3,$4,$5,0*
20,1,$1+$1,$4,$5,$6,$7,0*
20,1,$1+$1,$6,$7,$8,$9,0*
20,1,$1+$1,$8,$9,$2,$3,0*%
G04 Aperture macros list end*
%ADD10C,0.250000*%
%TA.AperFunction,NonConductor*%
%ADD11C,0.250000*%
%TD*%
%ADD12C,0.300000*%
%TA.AperFunction,ComponentPad*%
%ADD13RoundRect,0.170000X0.680000X-0.680000X0.680000X0.680000X-0.680000X0.680000X-0.680000X-0.680000X0*%
%TD*%
%TA.AperFunction,ComponentPad*%
%ADD14C,1.700000*%
%TD*%
%TA.AperFunction,ComponentPad*%
%ADD15RoundRect,0.250000X-0.550000X-0.550000X0.550000X-0.550000X0.550000X0.550000X-0.550000X0.550000X0*%
%TD*%
%TA.AperFunction,ComponentPad*%
%ADD16C,1.600000*%
%TD*%
%TA.AperFunction,ComponentPad*%
%ADD17C,2.200000*%
%TD*%
%TA.AperFunction,ComponentPad*%
%ADD18R,2.000000X2.000000*%
%TD*%
%TA.AperFunction,ComponentPad*%
%ADD19C,2.000000*%
%TD*%
%TA.AperFunction,ComponentPad*%
%ADD20R,3.200000X2.000000*%
%TD*%
%TA.AperFunction,ComponentPad*%
%ADD21R,3.500000X1.700000*%
%TD*%
%TA.AperFunction,ComponentPad*%
%ADD22O,3.600000X1.700000*%
%TD*%
%TA.AperFunction,ComponentPad*%
%ADD23O,3.700000X1.700000*%
%TD*%
%TA.AperFunction,ViaPad*%
%ADD24C,0.600000*%
%TD*%
%TA.AperFunction,Conductor*%
%ADD25C,0.250000*%
%TD*%
%TA.AperFunction,Conductor*%
%ADD26C,0.500000*%
%TD*%
G04 APERTURE END LIST*
D10*
D11*
X141864473Y-63176276D02*
X140950187Y-63519134D01*
X140950187Y-63519134D02*
X141864473Y-63861991D01*
X142835901Y-63347705D02*
X143007329Y-63404848D01*
X143007329Y-63404848D02*
X143064472Y-63461991D01*
X143064472Y-63461991D02*
X143121615Y-63576276D01*
X143121615Y-63576276D02*
X143121615Y-63747705D01*
X143121615Y-63747705D02*
X143064472Y-63861991D01*
X143064472Y-63861991D02*
X143007329Y-63919134D01*
X143007329Y-63919134D02*
X142893044Y-63976276D01*
X142893044Y-63976276D02*
X142435901Y-63976276D01*
X142435901Y-63976276D02*
X142435901Y-62776276D01*
X142435901Y-62776276D02*
X142835901Y-62776276D01*
X142835901Y-62776276D02*
X142950187Y-62833419D01*
X142950187Y-62833419D02*
X143007329Y-62890562D01*
X143007329Y-62890562D02*
X143064472Y-63004848D01*
X143064472Y-63004848D02*
X143064472Y-63119134D01*
X143064472Y-63119134D02*
X143007329Y-63233419D01*
X143007329Y-63233419D02*
X142950187Y-63290562D01*
X142950187Y-63290562D02*
X142835901Y-63347705D01*
X142835901Y-63347705D02*
X142435901Y-63347705D01*
X143521615Y-63176276D02*
X143807329Y-63976276D01*
X144093044Y-63176276D02*
X143807329Y-63976276D01*
X143807329Y-63976276D02*
X143693044Y-64261991D01*
X143693044Y-64261991D02*
X143635901Y-64319134D01*
X143635901Y-64319134D02*
X143521615Y-64376276D01*
X144378758Y-63176276D02*
X144835901Y-63176276D01*
X144550187Y-62776276D02*
X144550187Y-63804848D01*
X144550187Y-63804848D02*
X144607330Y-63919134D01*
X144607330Y-63919134D02*
X144721615Y-63976276D01*
X144721615Y-63976276D02*
X144835901Y-63976276D01*
X145693044Y-63919134D02*
X145578758Y-63976276D01*
X145578758Y-63976276D02*
X145350187Y-63976276D01*
X145350187Y-63976276D02*
X145235901Y-63919134D01*
X145235901Y-63919134D02*
X145178758Y-63804848D01*
X145178758Y-63804848D02*
X145178758Y-63347705D01*
X145178758Y-63347705D02*
X145235901Y-63233419D01*
X145235901Y-63233419D02*
X145350187Y-63176276D01*
X145350187Y-63176276D02*
X145578758Y-63176276D01*
X145578758Y-63176276D02*
X145693044Y-63233419D01*
X145693044Y-63233419D02*
X145750187Y-63347705D01*
X145750187Y-63347705D02*
X145750187Y-63461991D01*
X145750187Y-63461991D02*
X145178758Y-63576276D01*
X146664472Y-63347705D02*
X146835900Y-63404848D01*
X146835900Y-63404848D02*
X146893043Y-63461991D01*
X146893043Y-63461991D02*
X146950186Y-63576276D01*
X146950186Y-63576276D02*
X146950186Y-63747705D01*
X146950186Y-63747705D02*
X146893043Y-63861991D01*
X146893043Y-63861991D02*
X146835900Y-63919134D01*
X146835900Y-63919134D02*
X146721615Y-63976276D01*
X146721615Y-63976276D02*
X146264472Y-63976276D01*
X146264472Y-63976276D02*
X146264472Y-62776276D01*
X146264472Y-62776276D02*
X146664472Y-62776276D01*
X146664472Y-62776276D02*
X146778758Y-62833419D01*
X146778758Y-62833419D02*
X146835900Y-62890562D01*
X146835900Y-62890562D02*
X146893043Y-63004848D01*
X146893043Y-63004848D02*
X146893043Y-63119134D01*
X146893043Y-63119134D02*
X146835900Y-63233419D01*
X146835900Y-63233419D02*
X146778758Y-63290562D01*
X146778758Y-63290562D02*
X146664472Y-63347705D01*
X146664472Y-63347705D02*
X146264472Y-63347705D01*
X147635900Y-63976276D02*
X147521615Y-63919134D01*
X147521615Y-63919134D02*
X147464472Y-63861991D01*
X147464472Y-63861991D02*
X147407329Y-63747705D01*
X147407329Y-63747705D02*
X147407329Y-63404848D01*
X147407329Y-63404848D02*
X147464472Y-63290562D01*
X147464472Y-63290562D02*
X147521615Y-63233419D01*
X147521615Y-63233419D02*
X147635900Y-63176276D01*
X147635900Y-63176276D02*
X147807329Y-63176276D01*
X147807329Y-63176276D02*
X147921615Y-63233419D01*
X147921615Y-63233419D02*
X147978758Y-63290562D01*
X147978758Y-63290562D02*
X148035900Y-63404848D01*
X148035900Y-63404848D02*
X148035900Y-63747705D01*
X148035900Y-63747705D02*
X147978758Y-63861991D01*
X147978758Y-63861991D02*
X147921615Y-63919134D01*
X147921615Y-63919134D02*
X147807329Y-63976276D01*
X147807329Y-63976276D02*
X147635900Y-63976276D01*
X149064472Y-63976276D02*
X149064472Y-63347705D01*
X149064472Y-63347705D02*
X149007329Y-63233419D01*
X149007329Y-63233419D02*
X148893043Y-63176276D01*
X148893043Y-63176276D02*
X148664472Y-63176276D01*
X148664472Y-63176276D02*
X148550186Y-63233419D01*
X149064472Y-63919134D02*
X148950186Y-63976276D01*
X148950186Y-63976276D02*
X148664472Y-63976276D01*
X148664472Y-63976276D02*
X148550186Y-63919134D01*
X148550186Y-63919134D02*
X148493043Y-63804848D01*
X148493043Y-63804848D02*
X148493043Y-63690562D01*
X148493043Y-63690562D02*
X148550186Y-63576276D01*
X148550186Y-63576276D02*
X148664472Y-63519134D01*
X148664472Y-63519134D02*
X148950186Y-63519134D01*
X148950186Y-63519134D02*
X149064472Y-63461991D01*
X149635900Y-63976276D02*
X149635900Y-63176276D01*
X149635900Y-63404848D02*
X149693043Y-63290562D01*
X149693043Y-63290562D02*
X149750186Y-63233419D01*
X149750186Y-63233419D02*
X149864471Y-63176276D01*
X149864471Y-63176276D02*
X149978757Y-63176276D01*
X150893043Y-63976276D02*
X150893043Y-62776276D01*
X150893043Y-63919134D02*
X150778757Y-63976276D01*
X150778757Y-63976276D02*
X150550185Y-63976276D01*
X150550185Y-63976276D02*
X150435900Y-63919134D01*
X150435900Y-63919134D02*
X150378757Y-63861991D01*
X150378757Y-63861991D02*
X150321614Y-63747705D01*
X150321614Y-63747705D02*
X150321614Y-63404848D01*
X150321614Y-63404848D02*
X150378757Y-63290562D01*
X150378757Y-63290562D02*
X150435900Y-63233419D01*
X150435900Y-63233419D02*
X150550185Y-63176276D01*
X150550185Y-63176276D02*
X150778757Y-63176276D01*
X150778757Y-63176276D02*
X150893043Y-63233419D01*
X153235900Y-62719134D02*
X152207328Y-64261991D01*
X153635900Y-63176276D02*
X154550186Y-63519134D01*
X154550186Y-63519134D02*
X153635900Y-63861991D01*
X155921614Y-63176276D02*
X156207328Y-63976276D01*
X156207328Y-63976276D02*
X156493043Y-63176276D01*
X157578757Y-63976276D02*
X156893043Y-63976276D01*
X157235900Y-63976276D02*
X157235900Y-62776276D01*
X157235900Y-62776276D02*
X157121614Y-62947705D01*
X157121614Y-62947705D02*
X157007329Y-63061991D01*
X157007329Y-63061991D02*
X156893043Y-63119134D01*
X158093043Y-63861991D02*
X158150186Y-63919134D01*
X158150186Y-63919134D02*
X158093043Y-63976276D01*
X158093043Y-63976276D02*
X158035900Y-63919134D01*
X158035900Y-63919134D02*
X158093043Y-63861991D01*
X158093043Y-63861991D02*
X158093043Y-63976276D01*
X158893043Y-62776276D02*
X159007329Y-62776276D01*
X159007329Y-62776276D02*
X159121615Y-62833419D01*
X159121615Y-62833419D02*
X159178758Y-62890562D01*
X159178758Y-62890562D02*
X159235900Y-63004848D01*
X159235900Y-63004848D02*
X159293043Y-63233419D01*
X159293043Y-63233419D02*
X159293043Y-63519134D01*
X159293043Y-63519134D02*
X159235900Y-63747705D01*
X159235900Y-63747705D02*
X159178758Y-63861991D01*
X159178758Y-63861991D02*
X159121615Y-63919134D01*
X159121615Y-63919134D02*
X159007329Y-63976276D01*
X159007329Y-63976276D02*
X158893043Y-63976276D01*
X158893043Y-63976276D02*
X158778758Y-63919134D01*
X158778758Y-63919134D02*
X158721615Y-63861991D01*
X158721615Y-63861991D02*
X158664472Y-63747705D01*
X158664472Y-63747705D02*
X158607329Y-63519134D01*
X158607329Y-63519134D02*
X158607329Y-63233419D01*
X158607329Y-63233419D02*
X158664472Y-63004848D01*
X158664472Y-63004848D02*
X158721615Y-62890562D01*
X158721615Y-62890562D02*
X158778758Y-62833419D01*
X158778758Y-62833419D02*
X158893043Y-62776276D01*
X140950187Y-65908209D02*
X140950187Y-64708209D01*
X140950187Y-64708209D02*
X141235901Y-64708209D01*
X141235901Y-64708209D02*
X141407330Y-64765352D01*
X141407330Y-64765352D02*
X141521615Y-64879638D01*
X141521615Y-64879638D02*
X141578758Y-64993924D01*
X141578758Y-64993924D02*
X141635901Y-65222495D01*
X141635901Y-65222495D02*
X141635901Y-65393924D01*
X141635901Y-65393924D02*
X141578758Y-65622495D01*
X141578758Y-65622495D02*
X141521615Y-65736781D01*
X141521615Y-65736781D02*
X141407330Y-65851067D01*
X141407330Y-65851067D02*
X141235901Y-65908209D01*
X141235901Y-65908209D02*
X140950187Y-65908209D01*
X142607330Y-65851067D02*
X142493044Y-65908209D01*
X142493044Y-65908209D02*
X142264473Y-65908209D01*
X142264473Y-65908209D02*
X142150187Y-65851067D01*
X142150187Y-65851067D02*
X142093044Y-65736781D01*
X142093044Y-65736781D02*
X142093044Y-65279638D01*
X142093044Y-65279638D02*
X142150187Y-65165352D01*
X142150187Y-65165352D02*
X142264473Y-65108209D01*
X142264473Y-65108209D02*
X142493044Y-65108209D01*
X142493044Y-65108209D02*
X142607330Y-65165352D01*
X142607330Y-65165352D02*
X142664473Y-65279638D01*
X142664473Y-65279638D02*
X142664473Y-65393924D01*
X142664473Y-65393924D02*
X142093044Y-65508209D01*
X143121615Y-65851067D02*
X143235901Y-65908209D01*
X143235901Y-65908209D02*
X143464472Y-65908209D01*
X143464472Y-65908209D02*
X143578758Y-65851067D01*
X143578758Y-65851067D02*
X143635901Y-65736781D01*
X143635901Y-65736781D02*
X143635901Y-65679638D01*
X143635901Y-65679638D02*
X143578758Y-65565352D01*
X143578758Y-65565352D02*
X143464472Y-65508209D01*
X143464472Y-65508209D02*
X143293044Y-65508209D01*
X143293044Y-65508209D02*
X143178758Y-65451067D01*
X143178758Y-65451067D02*
X143121615Y-65336781D01*
X143121615Y-65336781D02*
X143121615Y-65279638D01*
X143121615Y-65279638D02*
X143178758Y-65165352D01*
X143178758Y-65165352D02*
X143293044Y-65108209D01*
X143293044Y-65108209D02*
X143464472Y-65108209D01*
X143464472Y-65108209D02*
X143578758Y-65165352D01*
X144150187Y-65908209D02*
X144150187Y-65108209D01*
X144150187Y-64708209D02*
X144093044Y-64765352D01*
X144093044Y-64765352D02*
X144150187Y-64822495D01*
X144150187Y-64822495D02*
X144207330Y-64765352D01*
X144207330Y-64765352D02*
X144150187Y-64708209D01*
X144150187Y-64708209D02*
X144150187Y-64822495D01*
X145235902Y-65108209D02*
X145235902Y-66079638D01*
X145235902Y-66079638D02*
X145178759Y-66193924D01*
X145178759Y-66193924D02*
X145121616Y-66251067D01*
X145121616Y-66251067D02*
X145007330Y-66308209D01*
X145007330Y-66308209D02*
X144835902Y-66308209D01*
X144835902Y-66308209D02*
X144721616Y-66251067D01*
X145235902Y-65851067D02*
X145121616Y-65908209D01*
X145121616Y-65908209D02*
X144893044Y-65908209D01*
X144893044Y-65908209D02*
X144778759Y-65851067D01*
X144778759Y-65851067D02*
X144721616Y-65793924D01*
X144721616Y-65793924D02*
X144664473Y-65679638D01*
X144664473Y-65679638D02*
X144664473Y-65336781D01*
X144664473Y-65336781D02*
X144721616Y-65222495D01*
X144721616Y-65222495D02*
X144778759Y-65165352D01*
X144778759Y-65165352D02*
X144893044Y-65108209D01*
X144893044Y-65108209D02*
X145121616Y-65108209D01*
X145121616Y-65108209D02*
X145235902Y-65165352D01*
X145807330Y-65108209D02*
X145807330Y-65908209D01*
X145807330Y-65222495D02*
X145864473Y-65165352D01*
X145864473Y-65165352D02*
X145978758Y-65108209D01*
X145978758Y-65108209D02*
X146150187Y-65108209D01*
X146150187Y-65108209D02*
X146264473Y-65165352D01*
X146264473Y-65165352D02*
X146321616Y-65279638D01*
X146321616Y-65279638D02*
X146321616Y-65908209D01*
X147350187Y-65851067D02*
X147235901Y-65908209D01*
X147235901Y-65908209D02*
X147007330Y-65908209D01*
X147007330Y-65908209D02*
X146893044Y-65851067D01*
X146893044Y-65851067D02*
X146835901Y-65736781D01*
X146835901Y-65736781D02*
X146835901Y-65279638D01*
X146835901Y-65279638D02*
X146893044Y-65165352D01*
X146893044Y-65165352D02*
X147007330Y-65108209D01*
X147007330Y-65108209D02*
X147235901Y-65108209D01*
X147235901Y-65108209D02*
X147350187Y-65165352D01*
X147350187Y-65165352D02*
X147407330Y-65279638D01*
X147407330Y-65279638D02*
X147407330Y-65393924D01*
X147407330Y-65393924D02*
X146835901Y-65508209D01*
X148435901Y-65908209D02*
X148435901Y-64708209D01*
X148435901Y-65851067D02*
X148321615Y-65908209D01*
X148321615Y-65908209D02*
X148093043Y-65908209D01*
X148093043Y-65908209D02*
X147978758Y-65851067D01*
X147978758Y-65851067D02*
X147921615Y-65793924D01*
X147921615Y-65793924D02*
X147864472Y-65679638D01*
X147864472Y-65679638D02*
X147864472Y-65336781D01*
X147864472Y-65336781D02*
X147921615Y-65222495D01*
X147921615Y-65222495D02*
X147978758Y-65165352D01*
X147978758Y-65165352D02*
X148093043Y-65108209D01*
X148093043Y-65108209D02*
X148321615Y-65108209D01*
X148321615Y-65108209D02*
X148435901Y-65165352D01*
X150321615Y-65279638D02*
X150493043Y-65336781D01*
X150493043Y-65336781D02*
X150550186Y-65393924D01*
X150550186Y-65393924D02*
X150607329Y-65508209D01*
X150607329Y-65508209D02*
X150607329Y-65679638D01*
X150607329Y-65679638D02*
X150550186Y-65793924D01*
X150550186Y-65793924D02*
X150493043Y-65851067D01*
X150493043Y-65851067D02*
X150378758Y-65908209D01*
X150378758Y-65908209D02*
X149921615Y-65908209D01*
X149921615Y-65908209D02*
X149921615Y-64708209D01*
X149921615Y-64708209D02*
X150321615Y-64708209D01*
X150321615Y-64708209D02*
X150435901Y-64765352D01*
X150435901Y-64765352D02*
X150493043Y-64822495D01*
X150493043Y-64822495D02*
X150550186Y-64936781D01*
X150550186Y-64936781D02*
X150550186Y-65051067D01*
X150550186Y-65051067D02*
X150493043Y-65165352D01*
X150493043Y-65165352D02*
X150435901Y-65222495D01*
X150435901Y-65222495D02*
X150321615Y-65279638D01*
X150321615Y-65279638D02*
X149921615Y-65279638D01*
X151007329Y-65108209D02*
X151293043Y-65908209D01*
X151578758Y-65108209D02*
X151293043Y-65908209D01*
X151293043Y-65908209D02*
X151178758Y-66193924D01*
X151178758Y-66193924D02*
X151121615Y-66251067D01*
X151121615Y-66251067D02*
X151007329Y-66308209D01*
X153293044Y-64708209D02*
X153293044Y-65565352D01*
X153293044Y-65565352D02*
X153235901Y-65736781D01*
X153235901Y-65736781D02*
X153121615Y-65851067D01*
X153121615Y-65851067D02*
X152950187Y-65908209D01*
X152950187Y-65908209D02*
X152835901Y-65908209D01*
X153864473Y-65908209D02*
X153864473Y-65108209D01*
X153864473Y-64708209D02*
X153807330Y-64765352D01*
X153807330Y-64765352D02*
X153864473Y-64822495D01*
X153864473Y-64822495D02*
X153921616Y-64765352D01*
X153921616Y-64765352D02*
X153864473Y-64708209D01*
X153864473Y-64708209D02*
X153864473Y-64822495D01*
X154378759Y-65851067D02*
X154493045Y-65908209D01*
X154493045Y-65908209D02*
X154721616Y-65908209D01*
X154721616Y-65908209D02*
X154835902Y-65851067D01*
X154835902Y-65851067D02*
X154893045Y-65736781D01*
X154893045Y-65736781D02*
X154893045Y-65679638D01*
X154893045Y-65679638D02*
X154835902Y-65565352D01*
X154835902Y-65565352D02*
X154721616Y-65508209D01*
X154721616Y-65508209D02*
X154550188Y-65508209D01*
X154550188Y-65508209D02*
X154435902Y-65451067D01*
X154435902Y-65451067D02*
X154378759Y-65336781D01*
X154378759Y-65336781D02*
X154378759Y-65279638D01*
X154378759Y-65279638D02*
X154435902Y-65165352D01*
X154435902Y-65165352D02*
X154550188Y-65108209D01*
X154550188Y-65108209D02*
X154721616Y-65108209D01*
X154721616Y-65108209D02*
X154835902Y-65165352D01*
X155407331Y-65908209D02*
X155407331Y-64708209D01*
X155921617Y-65908209D02*
X155921617Y-65279638D01*
X155921617Y-65279638D02*
X155864474Y-65165352D01*
X155864474Y-65165352D02*
X155750188Y-65108209D01*
X155750188Y-65108209D02*
X155578759Y-65108209D01*
X155578759Y-65108209D02*
X155464474Y-65165352D01*
X155464474Y-65165352D02*
X155407331Y-65222495D01*
X156493045Y-65108209D02*
X156493045Y-65908209D01*
X156493045Y-65222495D02*
X156550188Y-65165352D01*
X156550188Y-65165352D02*
X156664473Y-65108209D01*
X156664473Y-65108209D02*
X156835902Y-65108209D01*
X156835902Y-65108209D02*
X156950188Y-65165352D01*
X156950188Y-65165352D02*
X157007331Y-65279638D01*
X157007331Y-65279638D02*
X157007331Y-65908209D01*
X158093045Y-65108209D02*
X158093045Y-65908209D01*
X157578759Y-65108209D02*
X157578759Y-65736781D01*
X157578759Y-65736781D02*
X157635902Y-65851067D01*
X157635902Y-65851067D02*
X157750187Y-65908209D01*
X157750187Y-65908209D02*
X157921616Y-65908209D01*
X157921616Y-65908209D02*
X158035902Y-65851067D01*
X158035902Y-65851067D02*
X158093045Y-65793924D01*
X159578759Y-65908209D02*
X159578759Y-64708209D01*
X159578759Y-64708209D02*
X159864473Y-64708209D01*
X159864473Y-64708209D02*
X160035902Y-64765352D01*
X160035902Y-64765352D02*
X160150187Y-64879638D01*
X160150187Y-64879638D02*
X160207330Y-64993924D01*
X160207330Y-64993924D02*
X160264473Y-65222495D01*
X160264473Y-65222495D02*
X160264473Y-65393924D01*
X160264473Y-65393924D02*
X160207330Y-65622495D01*
X160207330Y-65622495D02*
X160150187Y-65736781D01*
X160150187Y-65736781D02*
X160035902Y-65851067D01*
X160035902Y-65851067D02*
X159864473Y-65908209D01*
X159864473Y-65908209D02*
X159578759Y-65908209D01*
X161293045Y-65108209D02*
X161293045Y-65908209D01*
X160778759Y-65108209D02*
X160778759Y-65736781D01*
X160778759Y-65736781D02*
X160835902Y-65851067D01*
X160835902Y-65851067D02*
X160950187Y-65908209D01*
X160950187Y-65908209D02*
X161121616Y-65908209D01*
X161121616Y-65908209D02*
X161235902Y-65851067D01*
X161235902Y-65851067D02*
X161293045Y-65793924D01*
X161693044Y-65108209D02*
X162150187Y-65108209D01*
X161864473Y-64708209D02*
X161864473Y-65736781D01*
X161864473Y-65736781D02*
X161921616Y-65851067D01*
X161921616Y-65851067D02*
X162035901Y-65908209D01*
X162035901Y-65908209D02*
X162150187Y-65908209D01*
X162378758Y-65108209D02*
X162835901Y-65108209D01*
X162550187Y-64708209D02*
X162550187Y-65736781D01*
X162550187Y-65736781D02*
X162607330Y-65851067D01*
X162607330Y-65851067D02*
X162721615Y-65908209D01*
X162721615Y-65908209D02*
X162835901Y-65908209D01*
X163750187Y-65908209D02*
X163750187Y-65279638D01*
X163750187Y-65279638D02*
X163693044Y-65165352D01*
X163693044Y-65165352D02*
X163578758Y-65108209D01*
X163578758Y-65108209D02*
X163350187Y-65108209D01*
X163350187Y-65108209D02*
X163235901Y-65165352D01*
X163750187Y-65851067D02*
X163635901Y-65908209D01*
X163635901Y-65908209D02*
X163350187Y-65908209D01*
X163350187Y-65908209D02*
X163235901Y-65851067D01*
X163235901Y-65851067D02*
X163178758Y-65736781D01*
X163178758Y-65736781D02*
X163178758Y-65622495D01*
X163178758Y-65622495D02*
X163235901Y-65508209D01*
X163235901Y-65508209D02*
X163350187Y-65451067D01*
X163350187Y-65451067D02*
X163635901Y-65451067D01*
X163635901Y-65451067D02*
X163750187Y-65393924D01*
X141293044Y-67268714D02*
X141293044Y-67497285D01*
X141350187Y-67497285D02*
X141350187Y-67268714D01*
X141407330Y-67211571D02*
X141407330Y-67554428D01*
X141464473Y-67497285D02*
X141464473Y-67268714D01*
X141521615Y-67268714D02*
X141521615Y-67497285D01*
X141293044Y-67440142D02*
X141407330Y-67554428D01*
X141407330Y-67554428D02*
X141521615Y-67440142D01*
X141293044Y-67325857D02*
X141407330Y-67211571D01*
X141407330Y-67211571D02*
X141521615Y-67325857D01*
X141293044Y-67268714D02*
X141407330Y-67211571D01*
X141407330Y-67211571D02*
X141521615Y-67268714D01*
X141521615Y-67268714D02*
X141578758Y-67383000D01*
X141578758Y-67383000D02*
X141521615Y-67497285D01*
X141521615Y-67497285D02*
X141407330Y-67554428D01*
X141407330Y-67554428D02*
X141293044Y-67497285D01*
X141293044Y-67497285D02*
X141235901Y-67383000D01*
X141235901Y-67383000D02*
X141293044Y-67268714D01*
X143293044Y-66754428D02*
X143350187Y-66697285D01*
X143350187Y-66697285D02*
X143464473Y-66640142D01*
X143464473Y-66640142D02*
X143750187Y-66640142D01*
X143750187Y-66640142D02*
X143864473Y-66697285D01*
X143864473Y-66697285D02*
X143921615Y-66754428D01*
X143921615Y-66754428D02*
X143978758Y-66868714D01*
X143978758Y-66868714D02*
X143978758Y-66983000D01*
X143978758Y-66983000D02*
X143921615Y-67154428D01*
X143921615Y-67154428D02*
X143235901Y-67840142D01*
X143235901Y-67840142D02*
X143978758Y-67840142D01*
X144721615Y-66640142D02*
X144835901Y-66640142D01*
X144835901Y-66640142D02*
X144950187Y-66697285D01*
X144950187Y-66697285D02*
X145007330Y-66754428D01*
X145007330Y-66754428D02*
X145064472Y-66868714D01*
X145064472Y-66868714D02*
X145121615Y-67097285D01*
X145121615Y-67097285D02*
X145121615Y-67383000D01*
X145121615Y-67383000D02*
X145064472Y-67611571D01*
X145064472Y-67611571D02*
X145007330Y-67725857D01*
X145007330Y-67725857D02*
X144950187Y-67783000D01*
X144950187Y-67783000D02*
X144835901Y-67840142D01*
X144835901Y-67840142D02*
X144721615Y-67840142D01*
X144721615Y-67840142D02*
X144607330Y-67783000D01*
X144607330Y-67783000D02*
X144550187Y-67725857D01*
X144550187Y-67725857D02*
X144493044Y-67611571D01*
X144493044Y-67611571D02*
X144435901Y-67383000D01*
X144435901Y-67383000D02*
X144435901Y-67097285D01*
X144435901Y-67097285D02*
X144493044Y-66868714D01*
X144493044Y-66868714D02*
X144550187Y-66754428D01*
X144550187Y-66754428D02*
X144607330Y-66697285D01*
X144607330Y-66697285D02*
X144721615Y-66640142D01*
X145578758Y-66754428D02*
X145635901Y-66697285D01*
X145635901Y-66697285D02*
X145750187Y-66640142D01*
X145750187Y-66640142D02*
X146035901Y-66640142D01*
X146035901Y-66640142D02*
X146150187Y-66697285D01*
X146150187Y-66697285D02*
X146207329Y-66754428D01*
X146207329Y-66754428D02*
X146264472Y-66868714D01*
X146264472Y-66868714D02*
X146264472Y-66983000D01*
X146264472Y-66983000D02*
X146207329Y-67154428D01*
X146207329Y-67154428D02*
X145521615Y-67840142D01*
X145521615Y-67840142D02*
X146264472Y-67840142D01*
X147293044Y-66640142D02*
X147064472Y-66640142D01*
X147064472Y-66640142D02*
X146950186Y-66697285D01*
X146950186Y-66697285D02*
X146893044Y-66754428D01*
X146893044Y-66754428D02*
X146778758Y-66925857D01*
X146778758Y-66925857D02*
X146721615Y-67154428D01*
X146721615Y-67154428D02*
X146721615Y-67611571D01*
X146721615Y-67611571D02*
X146778758Y-67725857D01*
X146778758Y-67725857D02*
X146835901Y-67783000D01*
X146835901Y-67783000D02*
X146950186Y-67840142D01*
X146950186Y-67840142D02*
X147178758Y-67840142D01*
X147178758Y-67840142D02*
X147293044Y-67783000D01*
X147293044Y-67783000D02*
X147350186Y-67725857D01*
X147350186Y-67725857D02*
X147407329Y-67611571D01*
X147407329Y-67611571D02*
X147407329Y-67325857D01*
X147407329Y-67325857D02*
X147350186Y-67211571D01*
X147350186Y-67211571D02*
X147293044Y-67154428D01*
X147293044Y-67154428D02*
X147178758Y-67097285D01*
X147178758Y-67097285D02*
X146950186Y-67097285D01*
X146950186Y-67097285D02*
X146835901Y-67154428D01*
X146835901Y-67154428D02*
X146778758Y-67211571D01*
X146778758Y-67211571D02*
X146721615Y-67325857D01*
D12*
G36*
X148537997Y-82815629D02*
G01*
X148522235Y-82888941D01*
X148517572Y-82946696D01*
X148511893Y-83035906D01*
X148506306Y-83125116D01*
X148496048Y-83416100D01*
X148485790Y-83706994D01*
X148497056Y-83931850D01*
X148508321Y-84156797D01*
X148498284Y-84209192D01*
X148468296Y-84252693D01*
X148423871Y-84281941D01*
X148368920Y-84291894D01*
X148312355Y-84282175D01*
X148264414Y-84253334D01*
X148231217Y-84210298D01*
X148220359Y-84159453D01*
X148213673Y-83934597D01*
X148207078Y-83709741D01*
X148209093Y-83606060D01*
X148039338Y-83620277D01*
X147811588Y-83653962D01*
X147418113Y-83723297D01*
X147403733Y-83943207D01*
X147393475Y-84165040D01*
X147383525Y-84214029D01*
X147353449Y-84255075D01*
X147309225Y-84282479D01*
X147254165Y-84291894D01*
X147199111Y-84282189D01*
X147154697Y-84253792D01*
X147124744Y-84211425D01*
X147114763Y-84160553D01*
X147118530Y-84046722D01*
X147132715Y-83857752D01*
X147146900Y-83668783D01*
X147150667Y-83554952D01*
X147156803Y-83168438D01*
X147162940Y-82781924D01*
X147172921Y-82731051D01*
X147202874Y-82688684D01*
X147247288Y-82660287D01*
X147302342Y-82650582D01*
X147357236Y-82660470D01*
X147401626Y-82689508D01*
X147431624Y-82732642D01*
X147441652Y-82784580D01*
X147435973Y-83018412D01*
X147430386Y-83252152D01*
X147423150Y-83350338D01*
X147418113Y-83453653D01*
X147811588Y-83382120D01*
X148034835Y-83349842D01*
X148209093Y-83336416D01*
X148222465Y-82962358D01*
X148234431Y-82880556D01*
X148270642Y-82778352D01*
X148305229Y-82714935D01*
X148337993Y-82676783D01*
X148369346Y-82656808D01*
X148400702Y-82650582D01*
X148451825Y-82659558D01*
X148497056Y-82686669D01*
X148522282Y-82715274D01*
X148537070Y-82747503D01*
X148542118Y-82784672D01*
X148537997Y-82815629D01*
G37*
G36*
X149632109Y-82740809D02*
G01*
X149672822Y-82764403D01*
X149706095Y-82805200D01*
X149731978Y-82868661D01*
X149796550Y-83196740D01*
X149949232Y-83870484D01*
X150001439Y-84005397D01*
X150030895Y-84088892D01*
X150038350Y-84137288D01*
X150033341Y-84174876D01*
X150018684Y-84207506D01*
X149993745Y-84236482D01*
X149945901Y-84266000D01*
X149892903Y-84274309D01*
X149859447Y-84265181D01*
X149822426Y-84236904D01*
X149779665Y-84180677D01*
X149729963Y-84083891D01*
X149680753Y-83957593D01*
X149636723Y-83805362D01*
X149388786Y-83829542D01*
X149236560Y-83843816D01*
X149140758Y-83858119D01*
X149083340Y-83983623D01*
X148976810Y-84195174D01*
X148942007Y-84236636D01*
X148901073Y-84260357D01*
X148851788Y-84268447D01*
X148798580Y-84258976D01*
X148750305Y-84230070D01*
X148725138Y-84201956D01*
X148710325Y-84169842D01*
X148705242Y-84132342D01*
X148713542Y-84093894D01*
X148753538Y-83992419D01*
X148854810Y-83778343D01*
X148844425Y-83746810D01*
X148842537Y-83718992D01*
X148852786Y-83692050D01*
X148882305Y-83666577D01*
X148941913Y-83642239D01*
X148967118Y-83600198D01*
X149290326Y-83600198D01*
X149433757Y-83582796D01*
X149578288Y-83570889D01*
X149510602Y-83225408D01*
X149290326Y-83600198D01*
X148967118Y-83600198D01*
X149093362Y-83389630D01*
X149265779Y-83120444D01*
X149420343Y-82897383D01*
X149510195Y-82786048D01*
X149558003Y-82742129D01*
X149581402Y-82732648D01*
X149632109Y-82740809D01*
G37*
G36*
X151279043Y-83148838D02*
G01*
X151223569Y-83138408D01*
X151179049Y-83107667D01*
X151142755Y-83052484D01*
X151120027Y-83013058D01*
X151101814Y-82997712D01*
X151080304Y-82993002D01*
X151020847Y-82990568D01*
X150962960Y-83000052D01*
X150896204Y-83031612D01*
X150817165Y-83092390D01*
X150722627Y-83192252D01*
X150630322Y-83314032D01*
X150563770Y-83426295D01*
X150519321Y-83530423D01*
X150494069Y-83627878D01*
X150485956Y-83720183D01*
X150494410Y-83792050D01*
X150519126Y-83855531D01*
X150560694Y-83912707D01*
X150614709Y-83957804D01*
X150673789Y-83984063D01*
X150740029Y-83992941D01*
X150806539Y-83987321D01*
X150874906Y-83970054D01*
X150946017Y-83940093D01*
X151101814Y-83840625D01*
X151178669Y-83798176D01*
X151222714Y-83787777D01*
X151261801Y-83792787D01*
X151296223Y-83807489D01*
X151327219Y-83832473D01*
X151357347Y-83877618D01*
X151367153Y-83928003D01*
X151361450Y-83965612D01*
X151344242Y-84000089D01*
X151313847Y-84032691D01*
X151194283Y-84121823D01*
X151078123Y-84187815D01*
X150964444Y-84233172D01*
X150852153Y-84259702D01*
X150740029Y-84268447D01*
X150628199Y-84257735D01*
X150527500Y-84226463D01*
X150435541Y-84174600D01*
X150350676Y-84100377D01*
X150283691Y-84014894D01*
X150236808Y-83923898D01*
X150208607Y-83825993D01*
X150199001Y-83719267D01*
X150209759Y-83588789D01*
X150242760Y-83455059D01*
X150299909Y-83316405D01*
X150384124Y-83171284D01*
X150499236Y-83018320D01*
X150612114Y-82899513D01*
X150719347Y-82814538D01*
X150822108Y-82757923D01*
X150921968Y-82725587D01*
X151020847Y-82715062D01*
X151102272Y-82718176D01*
X151166294Y-82727336D01*
X151215796Y-82696238D01*
X151274921Y-82685753D01*
X151322197Y-82693154D01*
X151358020Y-82714042D01*
X151385278Y-82749455D01*
X151404064Y-82804089D01*
X151416803Y-82892576D01*
X151421467Y-83002200D01*
X151414064Y-83050440D01*
X151391791Y-83094249D01*
X151362196Y-83124378D01*
X151325392Y-83142460D01*
X151279043Y-83148838D01*
G37*
G36*
X151850937Y-83789426D02*
G01*
X151849930Y-84221003D01*
X151843540Y-84264277D01*
X151824284Y-84304076D01*
X151796922Y-84333006D01*
X151762821Y-84350288D01*
X151719779Y-84356374D01*
X151669188Y-84348932D01*
X151627602Y-84327431D01*
X151592742Y-84290795D01*
X151565660Y-84237244D01*
X151556838Y-84181069D01*
X151571218Y-83497250D01*
X151585598Y-82813431D01*
X151595812Y-82760177D01*
X151626539Y-82715062D01*
X151672299Y-82684440D01*
X151729030Y-82674030D01*
X151785666Y-82684458D01*
X151830970Y-82715062D01*
X151861340Y-82760142D01*
X151871454Y-82813431D01*
X151862203Y-83062559D01*
X151848922Y-83311687D01*
X151963461Y-83193539D01*
X152380700Y-82742814D01*
X152414707Y-82713736D01*
X152450518Y-82697132D01*
X152489327Y-82691615D01*
X152543878Y-82701812D01*
X152591268Y-82732648D01*
X152624036Y-82778099D01*
X152634865Y-82831933D01*
X152621044Y-82873675D01*
X152555857Y-82969915D01*
X152390958Y-83161660D01*
X152206625Y-83354956D01*
X152010764Y-83547534D01*
X152235162Y-83759658D01*
X152364375Y-83874364D01*
X152470917Y-83959510D01*
X152525299Y-83993045D01*
X152583574Y-84017213D01*
X152633942Y-84040253D01*
X152666969Y-84069754D01*
X152686417Y-84106096D01*
X152693209Y-84151577D01*
X152686491Y-84194242D01*
X152665548Y-84236573D01*
X152636728Y-84267494D01*
X152602202Y-84285618D01*
X152560035Y-84291894D01*
X152492827Y-84282953D01*
X152410108Y-84252722D01*
X152307381Y-84194415D01*
X152179841Y-84099370D01*
X152088460Y-84017139D01*
X151850937Y-83789426D01*
G37*
G36*
X154769761Y-83148838D02*
G01*
X154714287Y-83138408D01*
X154669767Y-83107667D01*
X154633474Y-83052484D01*
X154610746Y-83013058D01*
X154592533Y-82997712D01*
X154571022Y-82993002D01*
X154511566Y-82990568D01*
X154453679Y-83000052D01*
X154386923Y-83031612D01*
X154307883Y-83092390D01*
X154213346Y-83192252D01*
X154121041Y-83314032D01*
X154054488Y-83426295D01*
X154010040Y-83530423D01*
X153984788Y-83627878D01*
X153976674Y-83720183D01*
X153985129Y-83792050D01*
X154009845Y-83855531D01*
X154051413Y-83912707D01*
X154105428Y-83957804D01*
X154164507Y-83984063D01*
X154230748Y-83992941D01*
X154297257Y-83987321D01*
X154365625Y-83970054D01*
X154436736Y-83940093D01*
X154592533Y-83840625D01*
X154669388Y-83798176D01*
X154713433Y-83787777D01*
X154752520Y-83792787D01*
X154786941Y-83807489D01*
X154817938Y-83832473D01*
X154848066Y-83877618D01*
X154857872Y-83928003D01*
X154852169Y-83965612D01*
X154834961Y-84000089D01*
X154804566Y-84032691D01*
X154685002Y-84121823D01*
X154568842Y-84187815D01*
X154455162Y-84233172D01*
X154342872Y-84259702D01*
X154230748Y-84268447D01*
X154118918Y-84257735D01*
X154018219Y-84226463D01*
X153926259Y-84174600D01*
X153841394Y-84100377D01*
X153774410Y-84014894D01*
X153727527Y-83923898D01*
X153699326Y-83825993D01*
X153689719Y-83719267D01*
X153700478Y-83588789D01*
X153733479Y-83455059D01*
X153790627Y-83316405D01*
X153874843Y-83171284D01*
X153989955Y-83018320D01*
X154102832Y-82899513D01*
X154210065Y-82814538D01*
X154312827Y-82757923D01*
X154412687Y-82725587D01*
X154511566Y-82715062D01*
X154592991Y-82718176D01*
X154657013Y-82727336D01*
X154706514Y-82696238D01*
X154765640Y-82685753D01*
X154812915Y-82693154D01*
X154848739Y-82714042D01*
X154875997Y-82749455D01*
X154894783Y-82804089D01*
X154907522Y-82892576D01*
X154912185Y-83002200D01*
X154904783Y-83050440D01*
X154882510Y-83094249D01*
X154852915Y-83124378D01*
X154816110Y-83142460D01*
X154769761Y-83148838D01*
G37*
G36*
X156004684Y-84209829D02*
G01*
X155866360Y-84254407D01*
X155630626Y-84301420D01*
X155408752Y-84330504D01*
X155250431Y-84338789D01*
X155166786Y-84331373D01*
X155104856Y-84311501D01*
X155059495Y-84281299D01*
X155027245Y-84240754D01*
X155006827Y-84187728D01*
X154999380Y-84118329D01*
X155019897Y-83793272D01*
X155039542Y-83335792D01*
X155046550Y-82802807D01*
X155056706Y-82748634D01*
X155087033Y-82703339D01*
X155132338Y-82672735D01*
X155188974Y-82662306D01*
X155245681Y-82672740D01*
X155291372Y-82703430D01*
X155322124Y-82748782D01*
X155332405Y-82802990D01*
X155325187Y-83339811D01*
X155304745Y-83811682D01*
X155285327Y-84063283D01*
X155446184Y-84050775D01*
X155650940Y-84014178D01*
X155908330Y-83947145D01*
X155953393Y-83940184D01*
X155994257Y-83945581D01*
X156028555Y-83961160D01*
X156057898Y-83987354D01*
X156084952Y-84032292D01*
X156093802Y-84081693D01*
X156084023Y-84134791D01*
X156055472Y-84176581D01*
X156004684Y-84209829D01*
G37*
G36*
X157275693Y-84069694D02*
G01*
X157193116Y-84162937D01*
X157095350Y-84239046D01*
X157006510Y-84285497D01*
X156918524Y-84312371D01*
X156829919Y-84321203D01*
X156695956Y-84313681D01*
X156589796Y-84293207D01*
X156506416Y-84262272D01*
X156441573Y-84222377D01*
X156365006Y-84150510D01*
X156300587Y-84062839D01*
X156248068Y-83957079D01*
X156208135Y-83830153D01*
X156182360Y-83678332D01*
X156173120Y-83497342D01*
X156178157Y-83350155D01*
X156183286Y-83202968D01*
X156185301Y-83085457D01*
X156187408Y-82967945D01*
X156194897Y-82889230D01*
X156217083Y-82815721D01*
X156250093Y-82759653D01*
X156286783Y-82730333D01*
X156328825Y-82720924D01*
X156381850Y-82729952D01*
X156428201Y-82757011D01*
X156454591Y-82785134D01*
X156470064Y-82817406D01*
X156475370Y-82855288D01*
X156473813Y-83028395D01*
X156472256Y-83202327D01*
X156467127Y-83347773D01*
X156462090Y-83493220D01*
X156471583Y-83645221D01*
X156499001Y-83782098D01*
X156535377Y-83884883D01*
X156577741Y-83956746D01*
X156625030Y-84004756D01*
X156657050Y-84020385D01*
X156719854Y-84033306D01*
X156829919Y-84039836D01*
X156897529Y-84032918D01*
X156958234Y-84010487D01*
X157013974Y-83971800D01*
X157065832Y-83914209D01*
X157113920Y-83833424D01*
X157157422Y-83723818D01*
X157194726Y-83578674D01*
X157219883Y-83416037D01*
X157237328Y-83194925D01*
X157243911Y-82902274D01*
X157252159Y-82846608D01*
X157277708Y-82791632D01*
X157313126Y-82752089D01*
X157356005Y-82728949D01*
X157408866Y-82720924D01*
X157452622Y-82726972D01*
X157486659Y-82743992D01*
X157513372Y-82772215D01*
X157533371Y-82812293D01*
X157540025Y-82856387D01*
X157534972Y-83128620D01*
X157521538Y-83335547D01*
X157502106Y-83488732D01*
X157464556Y-83663378D01*
X157413739Y-83816872D01*
X157350621Y-83951619D01*
X157275693Y-84069694D01*
G37*
G36*
X158314536Y-82640592D02*
G01*
X158407116Y-82663452D01*
X158499005Y-82702251D01*
X158591124Y-82758385D01*
X158669357Y-82822928D01*
X158727099Y-82890840D01*
X158767117Y-82962678D01*
X158791016Y-83039583D01*
X158799127Y-83123192D01*
X158793905Y-83201021D01*
X158779215Y-83266832D01*
X158756079Y-83322586D01*
X158712979Y-83386744D01*
X158638293Y-83463361D01*
X158700995Y-83500082D01*
X158759610Y-83548055D01*
X158814515Y-83608442D01*
X158864774Y-83684020D01*
X158892700Y-83755219D01*
X158901618Y-83823955D01*
X158893346Y-83887299D01*
X158867846Y-83950297D01*
X158822549Y-84014622D01*
X158753057Y-84081418D01*
X158650122Y-84152899D01*
X158545054Y-84203051D01*
X158427028Y-84239607D01*
X158288979Y-84267531D01*
X158128130Y-84285500D01*
X157941468Y-84291894D01*
X157902599Y-84286409D01*
X157866258Y-84269825D01*
X157831284Y-84240695D01*
X157803441Y-84204339D01*
X157787759Y-84168140D01*
X157782650Y-84131060D01*
X157782650Y-84010526D01*
X158061361Y-84010526D01*
X158240242Y-83989974D01*
X158443571Y-83943299D01*
X158540077Y-83909977D01*
X158592135Y-83880949D01*
X158615784Y-83855969D01*
X158621898Y-83833298D01*
X158609689Y-83786796D01*
X158574078Y-83740911D01*
X158506127Y-83693713D01*
X158417886Y-83654084D01*
X158340073Y-83636652D01*
X158061361Y-83629508D01*
X158061361Y-84010526D01*
X157782650Y-84010526D01*
X157782650Y-83044882D01*
X157777844Y-82914364D01*
X158061361Y-82914364D01*
X158062369Y-83132260D01*
X158061361Y-83348140D01*
X158149040Y-83355838D01*
X158201770Y-83355284D01*
X158311648Y-83338867D01*
X158391077Y-83312032D01*
X158447024Y-83277225D01*
X158484767Y-83235239D01*
X158507379Y-83185056D01*
X158515286Y-83124016D01*
X158506487Y-83079460D01*
X158477926Y-83033254D01*
X158423054Y-82983241D01*
X158356830Y-82943168D01*
X158289670Y-82919944D01*
X158220180Y-82912258D01*
X158061361Y-82914364D01*
X157777844Y-82914364D01*
X157777520Y-82905572D01*
X157777420Y-82829615D01*
X157782650Y-82772307D01*
X157797023Y-82732367D01*
X157827744Y-82699771D01*
X157879804Y-82673509D01*
X157961985Y-82655528D01*
X158052628Y-82639830D01*
X158220180Y-82632997D01*
X158314536Y-82640592D01*
G37*
D13*
%TO.P,U2,1,GND_1*%
%TO.N,GND*%
X124000000Y-45120000D03*
D14*
%TO.P,U2,2,VCC_2*%
%TO.N,VCC*%
X124000000Y-42580000D03*
%TO.P,U2,3,SCL_3*%
%TO.N,/SCL*%
X124000000Y-40040000D03*
%TO.P,U2,4,SDA_4*%
%TO.N,/SDA*%
X124000000Y-37500000D03*
%TD*%
D15*
%TO.P,D7,1,K_1*%
%TO.N,/R3*%
X87690000Y-107500000D03*
D16*
%TO.P,D7,2,A_2*%
%TO.N,Net-(D7-A)*%
X95310000Y-107500000D03*
%TD*%
D17*
%TO.P,SW4,1,1_1*%
%TO.N,/C1*%
X89380000Y-84080000D03*
%TO.P,SW4,2,2_2*%
%TO.N,Net-(D4-A)*%
X95730000Y-81540000D03*
%TD*%
D15*
%TO.P,D5,1,K_1*%
%TO.N,/R2*%
X107190000Y-88500000D03*
D16*
%TO.P,D5,2,A_2*%
%TO.N,Net-(D5-A)*%
X114810000Y-88500000D03*
%TD*%
D15*
%TO.P,D4,1,K_1*%
%TO.N,/R2*%
X88000000Y-88500000D03*
D16*
%TO.P,D4,2,A_2*%
%TO.N,Net-(D4-A)*%
X95620000Y-88500000D03*
%TD*%
D17*
%TO.P,SW6,1,1_1*%
%TO.N,/C3*%
X127380000Y-84080000D03*
%TO.P,SW6,2,2_2*%
%TO.N,Net-(D6-A)*%
X133730000Y-81540000D03*
%TD*%
%TO.P,SW9,1,1_1*%
%TO.N,/C3*%
X127460000Y-103080000D03*
%TO.P,SW9,2,2_2*%
%TO.N,Net-(D9-A)*%
X133810000Y-100540000D03*
%TD*%
D18*
%TO.P,SW10,A,A_A*%
%TO.N,/RE1*%
X104500000Y-37600000D03*
D19*
%TO.P,SW10,B,B_B*%
%TO.N,/RE2*%
X104500000Y-42600000D03*
%TO.P,SW10,C,C_C*%
%TO.N,GND*%
X104500000Y-40100000D03*
D20*
%TO.P,SW10,MP*%
%TO.N,N/C*%
X112000000Y-34500000D03*
X112000000Y-45700000D03*
D19*
%TO.P,SW10,S1,S1_S1*%
%TO.N,unconnected-(SW10-PadS1)*%
X119000000Y-42600000D03*
%TO.P,SW10,S2,S2_S2*%
%TO.N,unconnected-(SW10-PadS2)*%
X119000000Y-37600000D03*
%TD*%
D17*
%TO.P,SW5,1,1_1*%
%TO.N,/C2*%
X108380000Y-84080000D03*
%TO.P,SW5,2,2_2*%
%TO.N,Net-(D5-A)*%
X114730000Y-81540000D03*
%TD*%
%TO.P,SW2,1,1_1*%
%TO.N,/C2*%
X108460000Y-65080000D03*
%TO.P,SW2,2,2_2*%
%TO.N,Net-(D2-A)*%
X114810000Y-62540000D03*
%TD*%
D15*
%TO.P,D8,1,K_1*%
%TO.N,/R3*%
X106380000Y-107500000D03*
D16*
%TO.P,D8,2,A_2*%
%TO.N,Net-(D8-A)*%
X114000000Y-107500000D03*
%TD*%
D15*
%TO.P,D1,1,K_1*%
%TO.N,/R1*%
X87880000Y-69000000D03*
D16*
%TO.P,D1,2,A_2*%
%TO.N,Net-(D1-A)*%
X95500000Y-69000000D03*
%TD*%
D17*
%TO.P,SW1,1,1_1*%
%TO.N,/C1*%
X89540000Y-65080000D03*
%TO.P,SW1,2,2_2*%
%TO.N,Net-(D1-A)*%
X95890000Y-62540000D03*
%TD*%
D15*
%TO.P,D9,1,K_1*%
%TO.N,/R3*%
X127190000Y-107500000D03*
D16*
%TO.P,D9,2,A_2*%
%TO.N,Net-(D9-A)*%
X134810000Y-107500000D03*
%TD*%
D21*
%TO.P,U1,1,PA02_A0_D0_1*%
%TO.N,/R1*%
X82250000Y-31480000D03*
D22*
%TO.P,U1,2,PA4_A1_D1_2*%
%TO.N,/R2*%
X82250000Y-34020000D03*
%TO.P,U1,3,PA10_A2_D2_3*%
%TO.N,/R3*%
X82250000Y-36560000D03*
%TO.P,U1,4,PA11_A3_D3_4*%
%TO.N,/RGB*%
X82250000Y-39100000D03*
%TO.P,U1,5,PA8_A4_D4_SDA_5*%
%TO.N,/SDA*%
X82250000Y-41640000D03*
%TO.P,U1,6,PA9_A5_D5_SCL_6*%
%TO.N,/SCL*%
X82250000Y-44180000D03*
%TO.P,U1,7,PB08_A6_D6_TX_7*%
%TO.N,/C1*%
X82250000Y-46720000D03*
%TO.P,U1,8,PB09_A7_D7_RX_8*%
%TO.N,/C2*%
X99500000Y-46720000D03*
%TO.P,U1,9,PA7_A8_D8_SCK_9*%
%TO.N,/C3*%
X99500000Y-44180000D03*
%TO.P,U1,10,PA5_A9_D9_MISO_10*%
%TO.N,/RE1*%
X99500000Y-41640000D03*
D23*
%TO.P,U1,11,PA6_A10_D10_MOSI_11*%
%TO.N,/RE2*%
X99500000Y-39100000D03*
%TO.P,U1,12,3V3_12*%
%TO.N,unconnected-(U1-3V3-Pad12)*%
X99500000Y-36560000D03*
%TO.P,U1,13,GND_13*%
%TO.N,GND*%
X99500000Y-34020000D03*
%TO.P,U1,14,5V_14*%
%TO.N,VCC*%
X99500000Y-31480000D03*
%TD*%
D15*
%TO.P,D3,1,K_1*%
%TO.N,/R1*%
X125500000Y-69000000D03*
D16*
%TO.P,D3,2,A_2*%
%TO.N,Net-(D3-A)*%
X133120000Y-69000000D03*
%TD*%
D17*
%TO.P,SW8,1,1_1*%
%TO.N,/C2*%
X108380000Y-103080000D03*
%TO.P,SW8,2,2_2*%
%TO.N,Net-(D8-A)*%
X114730000Y-100540000D03*
%TD*%
%TO.P,SW3,1,1_1*%
%TO.N,/C3*%
X127540000Y-65080000D03*
%TO.P,SW3,2,2_2*%
%TO.N,Net-(D3-A)*%
X133890000Y-62540000D03*
%TD*%
D15*
%TO.P,D6,1,K_1*%
%TO.N,/R2*%
X126190000Y-87500000D03*
D16*
%TO.P,D6,2,A_2*%
%TO.N,Net-(D6-A)*%
X133810000Y-87500000D03*
%TD*%
D17*
%TO.P,SW7,1,1_1*%
%TO.N,/C1*%
X89500000Y-103080000D03*
%TO.P,SW7,2,2_2*%
%TO.N,Net-(D7-A)*%
X95850000Y-100540000D03*
%TD*%
D15*
%TO.P,D2,1,K_1*%
%TO.N,/R1*%
X107190000Y-69000000D03*
D16*
%TO.P,D2,2,A_2*%
%TO.N,Net-(D2-A)*%
X114810000Y-69000000D03*
%TD*%
D24*
%TO.N,GND*%
X114375000Y-96000000D03*
X138500000Y-75500000D03*
X134670558Y-93329442D03*
X115825668Y-95194612D03*
%TO.N,VCC*%
X124451472Y-41375356D03*
X107755000Y-91679463D03*
X97166942Y-74333058D03*
X90165000Y-76500000D03*
X115097360Y-70875000D03*
X115435000Y-67000000D03*
X105000000Y-72125000D03*
X106514320Y-67440436D03*
X108000000Y-48625000D03*
X127500000Y-50500000D03*
X88755000Y-90000000D03*
X129019550Y-45980451D03*
X103808058Y-52191942D03*
X88755000Y-90975358D03*
X107755000Y-90000000D03*
X90000000Y-50125000D03*
%TO.N,/R2*%
X106255000Y-88500000D03*
X88755000Y-88210670D03*
%TO.N,/C3*%
X122962106Y-47338756D03*
%TO.N,/R1*%
X88915000Y-69000000D03*
X106335000Y-69000000D03*
X88915000Y-69000000D03*
%TO.N,/RGB*%
X84003058Y-40003058D03*
%TO.N,Net-(D13-DOUT)*%
X117000000Y-72000000D03*
X115500000Y-75500000D03*
%TO.N,Net-(D11-DOUT)*%
X118561661Y-61025445D03*
X131019549Y-47980451D03*
X129000000Y-50000000D03*
X132500000Y-56000000D03*
%TO.N,Net-(D17-DOUT)*%
X109984202Y-94666920D03*
X114684265Y-98478375D03*
%TO.N,Net-(D14-DOUT)*%
X132325000Y-75000000D03*
X126594783Y-70673467D03*
X135500000Y-71500000D03*
X113838756Y-74777360D03*
X124000000Y-75000000D03*
%TO.N,Net-(D15-DOUT)*%
X98000000Y-91500000D03*
X109005000Y-86500000D03*
X126008883Y-73875001D03*
X98000000Y-86750000D03*
%TD*%
%TO.N,GND*%
D25*
X115825668Y-95194612D02*
X115180388Y-95194612D01*
D26*
X98500000Y-34020000D02*
X99798478Y-34020000D01*
X105550000Y-41150000D02*
X104500000Y-40100000D01*
X103050000Y-40064213D02*
X103085787Y-40100000D01*
D25*
X115180388Y-95194612D02*
X114375000Y-96000000D01*
X138500000Y-89500000D02*
X138500000Y-75500000D01*
D26*
X106929720Y-42529720D02*
X106929720Y-46925000D01*
X120030000Y-41150000D02*
X105550000Y-41150000D01*
X124000000Y-45120000D02*
X120030000Y-41150000D01*
X104500000Y-40100000D02*
X106929720Y-42529720D01*
X103050000Y-37271522D02*
X103050000Y-40064213D01*
X99798478Y-34020000D02*
X103050000Y-37271522D01*
D25*
X134670558Y-93329442D02*
X138500000Y-89500000D01*
D26*
X103085787Y-40100000D02*
X104500000Y-40100000D01*
%TO.N,VCC*%
D25*
X107930000Y-90000000D02*
X107755000Y-90000000D01*
X124000000Y-48625000D02*
X125437500Y-50062500D01*
X95000000Y-76500000D02*
X90165000Y-76500000D01*
X106514320Y-67440436D02*
X105000000Y-68954756D01*
X107930000Y-91679463D02*
X107930000Y-90000000D01*
D26*
X114930610Y-31480000D02*
X120450000Y-36999390D01*
X129019550Y-46480450D02*
X125437500Y-50062500D01*
X120450000Y-39030000D02*
X124000000Y-42580000D01*
D25*
X105000000Y-68954756D02*
X105000000Y-72125000D01*
X101741116Y-50125000D02*
X103808058Y-52191942D01*
X124000000Y-48625000D02*
X124125000Y-48625000D01*
X125875000Y-50500000D02*
X127500000Y-50500000D01*
X88755000Y-90975358D02*
X88755000Y-90000000D01*
X111625000Y-75375000D02*
X112357232Y-75375000D01*
X115935000Y-67500000D02*
X115435000Y-67000000D01*
X112500000Y-74500000D02*
X111625000Y-75375000D01*
D26*
X98500000Y-31480000D02*
X114930610Y-31480000D01*
D25*
X125437500Y-50062500D02*
X125875000Y-50500000D01*
D26*
X129019550Y-45980451D02*
X129019550Y-46480450D01*
D25*
X90000000Y-50125000D02*
X101741116Y-50125000D01*
D26*
X124000000Y-41826828D02*
X124451472Y-41375356D01*
D25*
X107755000Y-91679463D02*
X107930000Y-91679463D01*
X115935000Y-71797232D02*
X115935000Y-67500000D01*
X113232232Y-74500000D02*
X112500000Y-74500000D01*
X115097360Y-70875000D02*
X115097360Y-72634872D01*
D26*
X124000000Y-42580000D02*
X124000000Y-41826828D01*
D25*
X108000000Y-48625000D02*
X124000000Y-48625000D01*
X97166942Y-74333058D02*
X95000000Y-76500000D01*
X115097360Y-72634872D02*
X113232232Y-74500000D01*
X112357232Y-75375000D02*
X115935000Y-71797232D01*
D26*
X120450000Y-36999390D02*
X120450000Y-39030000D01*
%TO.N,/SCL*%
D25*
X87070000Y-48000000D02*
X123184746Y-48000000D01*
X83250000Y-44180000D02*
X87070000Y-48000000D01*
X125175000Y-46009746D02*
X125175000Y-41215000D01*
X123184746Y-48000000D02*
X125175000Y-46009746D01*
X125175000Y-41215000D02*
X124000000Y-40040000D01*
%TO.N,/SDA*%
X83250000Y-41640000D02*
X94585000Y-30305000D01*
X94585000Y-30305000D02*
X116805000Y-30305000D01*
X116805000Y-30305000D02*
X124000000Y-37500000D01*
%TO.N,/R3*%
X84511396Y-29855000D02*
X79988604Y-29855000D01*
X126065000Y-108625000D02*
X127190000Y-107500000D01*
X106380000Y-107500000D02*
X107505000Y-108625000D01*
X84775000Y-30118604D02*
X84511396Y-29855000D01*
X79988604Y-29855000D02*
X78775000Y-31068604D01*
X87690000Y-107500000D02*
X88815000Y-108625000D01*
X78775000Y-98585000D02*
X87690000Y-107500000D01*
X105255000Y-108625000D02*
X106380000Y-107500000D01*
X84775000Y-35035000D02*
X84775000Y-30118604D01*
X107505000Y-108625000D02*
X126065000Y-108625000D01*
X78775000Y-31068604D02*
X78775000Y-98585000D01*
X83250000Y-36560000D02*
X84775000Y-35035000D01*
X88815000Y-108625000D02*
X105255000Y-108625000D01*
%TO.N,Net-(D7-A)*%
X95850000Y-106960000D02*
X95310000Y-107500000D01*
X95850000Y-100540000D02*
X95850000Y-106960000D01*
%TO.N,/C1*%
X83250000Y-46720000D02*
X83250000Y-58790000D01*
X89380000Y-98880000D02*
X89500000Y-99000000D01*
X89500000Y-99000000D02*
X89500000Y-103080000D01*
X83250000Y-58790000D02*
X89540000Y-65080000D01*
X89380000Y-84080000D02*
X89380000Y-98880000D01*
X89540000Y-83920000D02*
X89380000Y-84080000D01*
X89540000Y-65080000D02*
X89540000Y-83920000D01*
%TO.N,Net-(D4-A)*%
X95730000Y-81540000D02*
X95730000Y-88390000D01*
X95730000Y-88390000D02*
X95620000Y-88500000D01*
%TO.N,/R2*%
X83250000Y-34020000D02*
X84325000Y-32945000D01*
X84325000Y-32945000D02*
X84325000Y-30305000D01*
X88800000Y-88500000D02*
X88930000Y-88370000D01*
X79225000Y-31255000D02*
X79225000Y-79725000D01*
X84325000Y-30305000D02*
X80175000Y-30305000D01*
X79225000Y-79725000D02*
X88000000Y-88500000D01*
X80175000Y-30305000D02*
X79225000Y-31255000D01*
X107190000Y-88500000D02*
X106255000Y-88500000D01*
X88000000Y-88500000D02*
X88800000Y-88500000D01*
X88914330Y-88370000D02*
X88755000Y-88210670D01*
X88930000Y-88370000D02*
X88914330Y-88370000D01*
%TO.N,Net-(D5-A)*%
X114730000Y-81540000D02*
X114730000Y-88420000D01*
X114730000Y-88420000D02*
X114810000Y-88500000D01*
%TO.N,/C3*%
X99680000Y-44180000D02*
X103050000Y-47550000D01*
X127540000Y-65080000D02*
X127540000Y-83920000D01*
X127380000Y-103000000D02*
X127460000Y-103080000D01*
X98500000Y-44180000D02*
X99680000Y-44180000D01*
X127380000Y-84080000D02*
X127380000Y-103000000D01*
X122998350Y-47375000D02*
X122962106Y-47338756D01*
X122998350Y-47550000D02*
X122998350Y-47375000D01*
X127540000Y-83920000D02*
X127380000Y-84080000D01*
X103050000Y-47550000D02*
X122998350Y-47550000D01*
%TO.N,Net-(D6-A)*%
X133730000Y-87420000D02*
X133810000Y-87500000D01*
X133730000Y-81540000D02*
X133730000Y-87420000D01*
%TO.N,Net-(D9-A)*%
X133810000Y-106500000D02*
X134810000Y-107500000D01*
X133810000Y-100540000D02*
X133810000Y-106500000D01*
%TO.N,/RE1*%
X98013299Y-32845000D02*
X100995000Y-32845000D01*
X98500000Y-41640000D02*
X97325000Y-40465000D01*
X104500000Y-36350000D02*
X104500000Y-37600000D01*
X97325000Y-40465000D02*
X97325000Y-33533299D01*
X97325000Y-33533299D02*
X98013299Y-32845000D01*
X100995000Y-32845000D02*
X104500000Y-36350000D01*
%TO.N,/RE2*%
X98500000Y-39100000D02*
X101000000Y-39100000D01*
X101000000Y-39100000D02*
X104500000Y-42600000D01*
%TO.N,/C2*%
X87933604Y-49500000D02*
X102000000Y-49500000D01*
X80813299Y-43005000D02*
X80125000Y-43693299D01*
X108460000Y-65080000D02*
X108460000Y-84000000D01*
X102000000Y-49500000D02*
X108460000Y-55960000D01*
X83788604Y-45355000D02*
X87933604Y-49500000D01*
X80813299Y-45355000D02*
X83788604Y-45355000D01*
X108460000Y-55960000D02*
X108460000Y-65080000D01*
X108380000Y-84080000D02*
X108380000Y-103080000D01*
X80125000Y-44666701D02*
X80813299Y-45355000D01*
X108460000Y-84000000D02*
X108380000Y-84080000D01*
X80125000Y-43693299D02*
X80125000Y-44666701D01*
X94785000Y-43005000D02*
X80813299Y-43005000D01*
X98500000Y-46720000D02*
X94785000Y-43005000D01*
%TO.N,Net-(D2-A)*%
X114810000Y-62540000D02*
X114810000Y-69000000D01*
%TO.N,Net-(D8-A)*%
X114730000Y-106770000D02*
X114000000Y-107500000D01*
X114730000Y-100540000D02*
X114730000Y-106770000D01*
%TO.N,/R1*%
X79675000Y-33983299D02*
X79675000Y-60795000D01*
X107190000Y-69000000D02*
X106335000Y-69000000D01*
X79675000Y-60795000D02*
X87880000Y-69000000D01*
X87880000Y-69000000D02*
X88915000Y-69000000D01*
X82178299Y-31480000D02*
X79675000Y-33983299D01*
X83250000Y-31480000D02*
X82178299Y-31480000D01*
%TO.N,Net-(D1-A)*%
X95890000Y-68610000D02*
X95500000Y-69000000D01*
X95890000Y-62540000D02*
X95890000Y-68610000D01*
%TO.N,/RGB*%
X83250000Y-39250000D02*
X84003058Y-40003058D01*
X83250000Y-39100000D02*
X83250000Y-39250000D01*
%TO.N,Net-(D3-A)*%
X133890000Y-62540000D02*
X133890000Y-68230000D01*
X133890000Y-68230000D02*
X133120000Y-69000000D01*
%TO.N,Net-(D13-DOUT)*%
X115500000Y-73500000D02*
X117000000Y-72000000D01*
X115500000Y-75500000D02*
X115500000Y-73500000D01*
%TO.N,Net-(D11-DOUT)*%
X118561661Y-61025445D02*
X123587106Y-56000000D01*
X131019549Y-47980451D02*
X129000000Y-50000000D01*
X123587106Y-56000000D02*
X132500000Y-56000000D01*
%TO.N,Net-(D17-DOUT)*%
X114684265Y-98405508D02*
X110945677Y-94666920D01*
X114684265Y-98478375D02*
X114684265Y-98405508D01*
X110945677Y-94666920D02*
X109984202Y-94666920D01*
%TO.N,Net-(D14-DOUT)*%
X126594783Y-72405217D02*
X124000000Y-75000000D01*
X132325000Y-75000000D02*
X132325000Y-74675000D01*
X121143250Y-76125000D02*
X126594783Y-70673467D01*
X126594783Y-70673467D02*
X126594783Y-72405217D01*
X113838756Y-74777360D02*
X115186396Y-76125000D01*
X115186396Y-76125000D02*
X121143250Y-76125000D01*
X132325000Y-74675000D02*
X135500000Y-71500000D01*
%TO.N,Net-(D15-DOUT)*%
X98000000Y-86750000D02*
X98000000Y-91500000D01*
X123308884Y-76575000D02*
X115425000Y-76575000D01*
X113295000Y-78705000D02*
X113295000Y-82210000D01*
X126008883Y-73875001D02*
X123308884Y-76575000D01*
X115425000Y-76575000D02*
X113295000Y-78705000D01*
X113295000Y-82210000D02*
X109005000Y-86500000D01*
%TD*%
M02*
