%TF.GenerationSoftware,KiCad,Pcbnew,10.0.3*%
%TF.CreationDate,2026-06-24T17:14:16+05:30*%
%TF.ProjectId,pcb,7063622e-6b69-4636-9164-5f7063625858,0*%
%TF.SameCoordinates,Original*%
%TF.FileFunction,Profile,NP*%
%FSLAX46Y46*%
G04 Gerber Fmt 4.6, Leading zero omitted, Abs format (unit mm)*
G04 Created by KiCad (PCBNEW 10.0.3) date 2026-06-24 17:14:16*
%MOMM*%
%LPD*%
G01*
G04 APERTURE LIST*
%TA.AperFunction,Profile*%
%ADD10C,0.050000*%
%TD*%
%TA.AperFunction,Profile*%
%ADD11C,0.120000*%
%TD*%
G04 APERTURE END LIST*
D10*
X71000000Y-26999999D02*
X165000000Y-26999999D01*
X165000000Y-111499999D01*
X71000000Y-111499999D01*
X71000000Y-26999999D01*
%TO.C,D13*%
D11*
X90525000Y-72250000D02*
X90525000Y-71549647D01*
X90525000Y-72250000D02*
X90525000Y-72950353D01*
X92225000Y-70750000D02*
X91324647Y-70750000D01*
X92225000Y-70750000D02*
X93125353Y-70750000D01*
X92225000Y-73750000D02*
X91324647Y-73750000D01*
X92225000Y-73750000D02*
X93125353Y-73750000D01*
X93925000Y-72250000D02*
X93925000Y-71549647D01*
X93925000Y-72250000D02*
X93925000Y-72950353D01*
X90481066Y-71393345D02*
G75*
G02*
X90524976Y-71549647I-256066J-156255D01*
G01*
X90481066Y-71393345D02*
G75*
G02*
X91168345Y-70706066I426774J260505D01*
G01*
X90525000Y-72950353D02*
G75*
G02*
X90481065Y-73106654I-299680J-87D01*
G01*
X91168345Y-73793934D02*
G75*
G02*
X90481066Y-73106655I-260505J426774D01*
G01*
X91168345Y-73793934D02*
G75*
G02*
X91324647Y-73750024I156255J-256066D01*
G01*
X91324647Y-70750000D02*
G75*
G02*
X91168344Y-70706067I3J300020D01*
G01*
X93125353Y-73750000D02*
G75*
G02*
X93281655Y-73793934I3J-299992D01*
G01*
X93281655Y-70706066D02*
G75*
G02*
X93125353Y-70750000I-156299J256058D01*
G01*
X93281655Y-70706066D02*
G75*
G02*
X93968934Y-71393345I260503J-426776D01*
G01*
X93925000Y-71549647D02*
G75*
G02*
X93968934Y-71393345I299992J3D01*
G01*
X93968934Y-73106655D02*
G75*
G02*
X93281655Y-73793934I-426776J-260503D01*
G01*
X93968934Y-73106655D02*
G75*
G02*
X93925000Y-72950353I256058J156299D01*
G01*
%TO.C,D10*%
X90525000Y-52750000D02*
X90525000Y-52049647D01*
X90525000Y-52750000D02*
X90525000Y-53450353D01*
X92225000Y-51250000D02*
X91324647Y-51250000D01*
X92225000Y-51250000D02*
X93125353Y-51250000D01*
X92225000Y-54250000D02*
X91324647Y-54250000D01*
X92225000Y-54250000D02*
X93125353Y-54250000D01*
X93925000Y-52750000D02*
X93925000Y-52049647D01*
X93925000Y-52750000D02*
X93925000Y-53450353D01*
X90481066Y-51893345D02*
G75*
G02*
X90524976Y-52049647I-256066J-156255D01*
G01*
X90481066Y-51893345D02*
G75*
G02*
X91168345Y-51206066I426774J260505D01*
G01*
X90525000Y-53450353D02*
G75*
G02*
X90481065Y-53606654I-299680J-87D01*
G01*
X91168345Y-54293934D02*
G75*
G02*
X90481066Y-53606655I-260505J426774D01*
G01*
X91168345Y-54293934D02*
G75*
G02*
X91324647Y-54250024I156255J-256066D01*
G01*
X91324647Y-51250000D02*
G75*
G02*
X91168344Y-51206067I3J300020D01*
G01*
X93125353Y-54250000D02*
G75*
G02*
X93281655Y-54293934I3J-299992D01*
G01*
X93281655Y-51206066D02*
G75*
G02*
X93125353Y-51250000I-156299J256058D01*
G01*
X93281655Y-51206066D02*
G75*
G02*
X93968934Y-51893345I260503J-426776D01*
G01*
X93925000Y-52049647D02*
G75*
G02*
X93968934Y-51893345I299992J3D01*
G01*
X93968934Y-53606655D02*
G75*
G02*
X93281655Y-54293934I-426776J-260503D01*
G01*
X93968934Y-53606655D02*
G75*
G02*
X93925000Y-53450353I256058J156299D01*
G01*
%TO.C,D11*%
X109575000Y-52750000D02*
X109575000Y-52049647D01*
X109575000Y-52750000D02*
X109575000Y-53450353D01*
X111275000Y-51250000D02*
X110374647Y-51250000D01*
X111275000Y-51250000D02*
X112175353Y-51250000D01*
X111275000Y-54250000D02*
X110374647Y-54250000D01*
X111275000Y-54250000D02*
X112175353Y-54250000D01*
X112975000Y-52750000D02*
X112975000Y-52049647D01*
X112975000Y-52750000D02*
X112975000Y-53450353D01*
X109531066Y-51893345D02*
G75*
G02*
X109574976Y-52049647I-256066J-156255D01*
G01*
X109531066Y-51893345D02*
G75*
G02*
X110218345Y-51206066I426774J260505D01*
G01*
X109575000Y-53450353D02*
G75*
G02*
X109531065Y-53606654I-299680J-87D01*
G01*
X110218345Y-54293934D02*
G75*
G02*
X109531066Y-53606655I-260505J426774D01*
G01*
X110218345Y-54293934D02*
G75*
G02*
X110374647Y-54250024I156255J-256066D01*
G01*
X110374647Y-51250000D02*
G75*
G02*
X110218344Y-51206067I3J300020D01*
G01*
X112175353Y-54250000D02*
G75*
G02*
X112331655Y-54293934I3J-299992D01*
G01*
X112331655Y-51206066D02*
G75*
G02*
X112175353Y-51250000I-156299J256058D01*
G01*
X112331655Y-51206066D02*
G75*
G02*
X113018934Y-51893345I260503J-426776D01*
G01*
X112975000Y-52049647D02*
G75*
G02*
X113018934Y-51893345I299992J3D01*
G01*
X113018934Y-53606655D02*
G75*
G02*
X112331655Y-54293934I-426776J-260503D01*
G01*
X113018934Y-53606655D02*
G75*
G02*
X112975000Y-53450353I256058J156299D01*
G01*
%TO.C,D18*%
X128300000Y-90750000D02*
X128300000Y-90049647D01*
X128300000Y-90750000D02*
X128300000Y-91450353D01*
X130000000Y-89250000D02*
X129099647Y-89250000D01*
X130000000Y-89250000D02*
X130900353Y-89250000D01*
X130000000Y-92250000D02*
X129099647Y-92250000D01*
X130000000Y-92250000D02*
X130900353Y-92250000D01*
X131700000Y-90750000D02*
X131700000Y-90049647D01*
X131700000Y-90750000D02*
X131700000Y-91450353D01*
X128256066Y-89893345D02*
G75*
G02*
X128299976Y-90049647I-256066J-156255D01*
G01*
X128256066Y-89893345D02*
G75*
G02*
X128943345Y-89206066I426774J260505D01*
G01*
X128300000Y-91450353D02*
G75*
G02*
X128256065Y-91606654I-299680J-87D01*
G01*
X128943345Y-92293934D02*
G75*
G02*
X128256066Y-91606655I-260505J426774D01*
G01*
X128943345Y-92293934D02*
G75*
G02*
X129099647Y-92250024I156255J-256066D01*
G01*
X129099647Y-89250000D02*
G75*
G02*
X128943344Y-89206067I3J300020D01*
G01*
X130900353Y-92250000D02*
G75*
G02*
X131056655Y-92293934I3J-299992D01*
G01*
X131056655Y-89206066D02*
G75*
G02*
X130900353Y-89250000I-156299J256058D01*
G01*
X131056655Y-89206066D02*
G75*
G02*
X131743934Y-89893345I260503J-426776D01*
G01*
X131700000Y-90049647D02*
G75*
G02*
X131743934Y-89893345I299992J3D01*
G01*
X131743934Y-91606655D02*
G75*
G02*
X131056655Y-92293934I-426776J-260503D01*
G01*
X131743934Y-91606655D02*
G75*
G02*
X131700000Y-91450353I256058J156299D01*
G01*
%TO.C,D15*%
X128525000Y-72250000D02*
X128525000Y-71549647D01*
X128525000Y-72250000D02*
X128525000Y-72950353D01*
X130225000Y-70750000D02*
X129324647Y-70750000D01*
X130225000Y-70750000D02*
X131125353Y-70750000D01*
X130225000Y-73750000D02*
X129324647Y-73750000D01*
X130225000Y-73750000D02*
X131125353Y-73750000D01*
X131925000Y-72250000D02*
X131925000Y-71549647D01*
X131925000Y-72250000D02*
X131925000Y-72950353D01*
X128481066Y-71393345D02*
G75*
G02*
X128524976Y-71549647I-256066J-156255D01*
G01*
X128481066Y-71393345D02*
G75*
G02*
X129168345Y-70706066I426774J260505D01*
G01*
X128525000Y-72950353D02*
G75*
G02*
X128481065Y-73106654I-299680J-87D01*
G01*
X129168345Y-73793934D02*
G75*
G02*
X128481066Y-73106655I-260505J426774D01*
G01*
X129168345Y-73793934D02*
G75*
G02*
X129324647Y-73750024I156255J-256066D01*
G01*
X129324647Y-70750000D02*
G75*
G02*
X129168344Y-70706067I3J300020D01*
G01*
X131125353Y-73750000D02*
G75*
G02*
X131281655Y-73793934I3J-299992D01*
G01*
X131281655Y-70706066D02*
G75*
G02*
X131125353Y-70750000I-156299J256058D01*
G01*
X131281655Y-70706066D02*
G75*
G02*
X131968934Y-71393345I260503J-426776D01*
G01*
X131925000Y-71549647D02*
G75*
G02*
X131968934Y-71393345I299992J3D01*
G01*
X131968934Y-73106655D02*
G75*
G02*
X131281655Y-73793934I-426776J-260503D01*
G01*
X131968934Y-73106655D02*
G75*
G02*
X131925000Y-72950353I256058J156299D01*
G01*
%TO.C,D16*%
X90525000Y-91750000D02*
X90525000Y-91049647D01*
X90525000Y-91750000D02*
X90525000Y-92450353D01*
X92225000Y-90250000D02*
X91324647Y-90250000D01*
X92225000Y-90250000D02*
X93125353Y-90250000D01*
X92225000Y-93250000D02*
X91324647Y-93250000D01*
X92225000Y-93250000D02*
X93125353Y-93250000D01*
X93925000Y-91750000D02*
X93925000Y-91049647D01*
X93925000Y-91750000D02*
X93925000Y-92450353D01*
X90481066Y-90893345D02*
G75*
G02*
X90524976Y-91049647I-256066J-156255D01*
G01*
X90481066Y-90893345D02*
G75*
G02*
X91168345Y-90206066I426774J260505D01*
G01*
X90525000Y-92450353D02*
G75*
G02*
X90481065Y-92606654I-299680J-87D01*
G01*
X91168345Y-93293934D02*
G75*
G02*
X90481066Y-92606655I-260505J426774D01*
G01*
X91168345Y-93293934D02*
G75*
G02*
X91324647Y-93250024I156255J-256066D01*
G01*
X91324647Y-90250000D02*
G75*
G02*
X91168344Y-90206067I3J300020D01*
G01*
X93125353Y-93250000D02*
G75*
G02*
X93281655Y-93293934I3J-299992D01*
G01*
X93281655Y-90206066D02*
G75*
G02*
X93125353Y-90250000I-156299J256058D01*
G01*
X93281655Y-90206066D02*
G75*
G02*
X93968934Y-90893345I260503J-426776D01*
G01*
X93925000Y-91049647D02*
G75*
G02*
X93968934Y-90893345I299992J3D01*
G01*
X93968934Y-92606655D02*
G75*
G02*
X93281655Y-93293934I-426776J-260503D01*
G01*
X93968934Y-92606655D02*
G75*
G02*
X93925000Y-92450353I256058J156299D01*
G01*
%TO.C,D17*%
X109575000Y-91750000D02*
X109575000Y-91049647D01*
X109575000Y-91750000D02*
X109575000Y-92450353D01*
X111275000Y-90250000D02*
X110374647Y-90250000D01*
X111275000Y-90250000D02*
X112175353Y-90250000D01*
X111275000Y-93250000D02*
X110374647Y-93250000D01*
X111275000Y-93250000D02*
X112175353Y-93250000D01*
X112975000Y-91750000D02*
X112975000Y-91049647D01*
X112975000Y-91750000D02*
X112975000Y-92450353D01*
X109531066Y-90893345D02*
G75*
G02*
X109574976Y-91049647I-256066J-156255D01*
G01*
X109531066Y-90893345D02*
G75*
G02*
X110218345Y-90206066I426774J260505D01*
G01*
X109575000Y-92450353D02*
G75*
G02*
X109531065Y-92606654I-299680J-87D01*
G01*
X110218345Y-93293934D02*
G75*
G02*
X109531066Y-92606655I-260505J426774D01*
G01*
X110218345Y-93293934D02*
G75*
G02*
X110374647Y-93250024I156255J-256066D01*
G01*
X110374647Y-90250000D02*
G75*
G02*
X110218344Y-90206067I3J300020D01*
G01*
X112175353Y-93250000D02*
G75*
G02*
X112331655Y-93293934I3J-299992D01*
G01*
X112331655Y-90206066D02*
G75*
G02*
X112175353Y-90250000I-156299J256058D01*
G01*
X112331655Y-90206066D02*
G75*
G02*
X113018934Y-90893345I260503J-426776D01*
G01*
X112975000Y-91049647D02*
G75*
G02*
X113018934Y-90893345I299992J3D01*
G01*
X113018934Y-92606655D02*
G75*
G02*
X112331655Y-93293934I-426776J-260503D01*
G01*
X113018934Y-92606655D02*
G75*
G02*
X112975000Y-92450353I256058J156299D01*
G01*
%TO.C,D12*%
X128300000Y-52750000D02*
X128300000Y-52049647D01*
X128300000Y-52750000D02*
X128300000Y-53450353D01*
X130000000Y-51250000D02*
X129099647Y-51250000D01*
X130000000Y-51250000D02*
X130900353Y-51250000D01*
X130000000Y-54250000D02*
X129099647Y-54250000D01*
X130000000Y-54250000D02*
X130900353Y-54250000D01*
X131700000Y-52750000D02*
X131700000Y-52049647D01*
X131700000Y-52750000D02*
X131700000Y-53450353D01*
X128256066Y-51893345D02*
G75*
G02*
X128299976Y-52049647I-256066J-156255D01*
G01*
X128256066Y-51893345D02*
G75*
G02*
X128943345Y-51206066I426774J260505D01*
G01*
X128300000Y-53450353D02*
G75*
G02*
X128256065Y-53606654I-299680J-87D01*
G01*
X128943345Y-54293934D02*
G75*
G02*
X128256066Y-53606655I-260505J426774D01*
G01*
X128943345Y-54293934D02*
G75*
G02*
X129099647Y-54250024I156255J-256066D01*
G01*
X129099647Y-51250000D02*
G75*
G02*
X128943344Y-51206067I3J300020D01*
G01*
X130900353Y-54250000D02*
G75*
G02*
X131056655Y-54293934I3J-299992D01*
G01*
X131056655Y-51206066D02*
G75*
G02*
X130900353Y-51250000I-156299J256058D01*
G01*
X131056655Y-51206066D02*
G75*
G02*
X131743934Y-51893345I260503J-426776D01*
G01*
X131700000Y-52049647D02*
G75*
G02*
X131743934Y-51893345I299992J3D01*
G01*
X131743934Y-53606655D02*
G75*
G02*
X131056655Y-54293934I-426776J-260503D01*
G01*
X131743934Y-53606655D02*
G75*
G02*
X131700000Y-53450353I256058J156299D01*
G01*
%TO.C,D14*%
X109575000Y-72250000D02*
X109575000Y-71549647D01*
X109575000Y-72250000D02*
X109575000Y-72950353D01*
X111275000Y-70750000D02*
X110374647Y-70750000D01*
X111275000Y-70750000D02*
X112175353Y-70750000D01*
X111275000Y-73750000D02*
X110374647Y-73750000D01*
X111275000Y-73750000D02*
X112175353Y-73750000D01*
X112975000Y-72250000D02*
X112975000Y-71549647D01*
X112975000Y-72250000D02*
X112975000Y-72950353D01*
X109531066Y-71393345D02*
G75*
G02*
X109574976Y-71549647I-256066J-156255D01*
G01*
X109531066Y-71393345D02*
G75*
G02*
X110218345Y-70706066I426774J260505D01*
G01*
X109575000Y-72950353D02*
G75*
G02*
X109531065Y-73106654I-299680J-87D01*
G01*
X110218345Y-73793934D02*
G75*
G02*
X109531066Y-73106655I-260505J426774D01*
G01*
X110218345Y-73793934D02*
G75*
G02*
X110374647Y-73750024I156255J-256066D01*
G01*
X110374647Y-70750000D02*
G75*
G02*
X110218344Y-70706067I3J300020D01*
G01*
X112175353Y-73750000D02*
G75*
G02*
X112331655Y-73793934I3J-299992D01*
G01*
X112331655Y-70706066D02*
G75*
G02*
X112175353Y-70750000I-156299J256058D01*
G01*
X112331655Y-70706066D02*
G75*
G02*
X113018934Y-71393345I260503J-426776D01*
G01*
X112975000Y-71549647D02*
G75*
G02*
X113018934Y-71393345I299992J3D01*
G01*
X113018934Y-73106655D02*
G75*
G02*
X112331655Y-73793934I-426776J-260503D01*
G01*
X113018934Y-73106655D02*
G75*
G02*
X112975000Y-72950353I256058J156299D01*
G01*
%TD*%
M02*
