M48
; DRILL file KiCad 10.0.3 date 2026-06-24T17:14:19
; FORMAT={-:-/ absolute / metric / decimal}
; #@! TF.CreationDate,2026-06-24T17:14:19+05:30
; #@! TF.GenerationSoftware,Kicad,Pcbnew,10.0.3
; #@! TF.FileFunction,Plated,1,2,PTH
FMAT,2
METRIC
; #@! TA.AperFunction,Plated,PTH,ViaDrill
T1C0.300
; #@! TA.AperFunction,Plated,PTH,ComponentDrill
T2C0.800
; #@! TA.AperFunction,Plated,PTH,ComponentDrill
T3C1.000
; #@! TA.AperFunction,Plated,PTH,ComponentDrill
T4C1.500
%
G90
G05
T1
X84.003Y-40.003
X88.755Y-88.211
X88.755Y-90.0
X88.755Y-90.975
X88.915Y-69.0
X88.915Y-69.0
X90.0Y-50.125
X90.165Y-76.5
X97.167Y-74.333
X98.0Y-86.75
X98.0Y-91.5
X103.808Y-52.192
X105.0Y-72.125
X106.255Y-88.5
X106.335Y-69.0
X106.514Y-67.44
X107.755Y-90.0
X107.755Y-91.679
X108.0Y-48.625
X109.005Y-86.5
X109.984Y-94.667
X113.839Y-74.777
X114.375Y-96.0
X114.684Y-98.478
X115.097Y-70.875
X115.435Y-67.0
X115.5Y-75.5
X115.826Y-95.195
X117.0Y-72.0
X118.562Y-61.025
X122.962Y-47.339
X124.0Y-75.0
X124.451Y-41.375
X126.009Y-73.875
X126.595Y-70.673
X127.5Y-50.5
X129.0Y-50.0
X129.02Y-45.98
X131.02Y-47.98
X132.325Y-75.0
X132.5Y-56.0
X134.671Y-93.329
X135.5Y-71.5
X138.5Y-75.5
T2
X87.69Y-107.5
X87.88Y-69.0
X88.0Y-88.5
X95.31Y-107.5
X95.5Y-69.0
X95.62Y-88.5
X106.38Y-107.5
X107.19Y-69.0
X107.19Y-88.5
X114.0Y-107.5
X114.81Y-69.0
X114.81Y-88.5
X125.5Y-69.0
X126.19Y-87.5
X127.19Y-107.5
X133.12Y-69.0
X133.81Y-87.5
X134.81Y-107.5
T3
X83.25Y-31.48
X83.25Y-34.02
X83.25Y-36.56
X83.25Y-39.1
X83.25Y-41.64
X83.25Y-44.18
X83.25Y-46.72
X98.5Y-31.48
X98.5Y-34.02
X98.5Y-36.56
X98.5Y-39.1
X98.5Y-41.64
X98.5Y-44.18
X98.5Y-46.72
X104.5Y-37.6
X104.5Y-40.1
X104.5Y-42.6
X119.0Y-37.6
X119.0Y-42.6
X124.0Y-37.5
X124.0Y-40.04
X124.0Y-42.58
X124.0Y-45.12
T4
X89.38Y-84.08
X89.5Y-103.08
X89.54Y-65.08
X95.73Y-81.54
X95.85Y-100.54
X95.89Y-62.54
X108.38Y-84.08
X108.38Y-103.08
X108.46Y-65.08
X114.73Y-81.54
X114.73Y-100.54
X114.81Y-62.54
X127.38Y-84.08
X127.46Y-103.08
X127.54Y-65.08
X133.73Y-81.54
X133.81Y-100.54
X133.89Y-62.54
T4
G00X111.35Y-34.5
M15
G01X112.65Y-34.5
M16
G05
G00X111.35Y-45.7
M15
G01X112.65Y-45.7
M16
G05
M30
